<svg width="48" height="48" viewBox="0 0 48 48" xmlns="http://www.w3.org/2000/svg">
  <defs>
    <linearGradient id="leafGradient48" x1="0%" y1="0%" x2="100%" y2="100%">
      <stop offset="0%" style="stop-color:#7fb069;stop-opacity:1" />
      <stop offset="50%" style="stop-color:#4a7c59;stop-opacity:1" />
      <stop offset="100%" style="stop-color:#2d5a27;stop-opacity:1" />
    </linearGradient>
    <radialGradient id="centerGlow48" cx="50%" cy="30%" r="40%">
      <stop offset="0%" style="stop-color:#7fb069;stop-opacity:0.3" />
      <stop offset="100%" style="stop-color:#7fb069;stop-opacity:0" />
    </radialGradient>
  </defs>
  
  <!-- Background circle for better visibility -->
  <circle cx="24" cy="24" r="22" fill="#f8f9fa" stroke="#e9ecef" stroke-width="1"/>
  
  <!-- Main leaf shape -->
  <path d="M24 8C16 8 10 14 10 22c0 6 3 10.5 7 13.5C19 38 21.5 39 24 39c2.5 0 5-1 7-2.5c4-3 7-7.5 7-13.5c0-8-6-14-14-14z" fill="url(#leafGradient48)"/>
  
  <!-- Center glow effect -->
  <path d="M24 8C16 8 10 14 10 22c0 6 3 10.5 7 13.5C19 38 21.5 39 24 39c2.5 0 5-1 7-2.5c4-3 7-7.5 7-13.5c0-8-6-14-14-14z" fill="url(#centerGlow48)"/>
  
  <!-- Main vein -->
  <path d="M24 10v26" stroke="#2d5a27" stroke-width="2" fill="none"/>
  
  <!-- Side veins -->
  <path d="M24 15L18 21M24 20L30 26M24 25L18 31M24 30L30 36" stroke="#2d5a27" stroke-width="1.2" fill="none"/>
  
  <!-- Smaller detail veins -->
  <path d="M21 18L19 20M27 23L29 25M21 28L19 30M27 33L29 35" stroke="#4a7c59" stroke-width="0.8" fill="none"/>
</svg>